<svg width="24" height="25" viewBox="0 0 24 25" fill="none" xmlns="http://www.w3.org/2000/svg">
<path d="M3 6.66321H5H21" stroke="#E83F5B" stroke-width="2" stroke-linecap="round" stroke-linejoin="round"/>
<path d="M8 6.66321V4.66321C8 4.13278 8.21071 3.62407 8.58579 3.24899C8.96086 2.87392 9.46957 2.66321 10 2.66321H14C14.5304 2.66321 15.0391 2.87392 15.4142 3.24899C15.7893 3.62407 16 4.13278 16 4.66321V6.66321M19 6.66321V20.6632C19 21.1936 18.7893 21.7023 18.4142 22.0774C18.0391 22.4525 17.5304 22.6632 17 22.6632H7C6.46957 22.6632 5.96086 22.4525 5.58579 22.0774C5.21071 21.7023 5 21.1936 5 20.6632V6.66321H19Z" stroke="#E83F5B" stroke-width="2" stroke-linecap="round" stroke-linejoin="round"/>
</svg>
