<svg width="52" height="53" viewBox="0 0 52 53" fill="none" xmlns="http://www.w3.org/2000/svg">
<circle cx="26" cy="26.6632" r="26" fill="#3485FF"/>
<path d="M34 35.6632V33.6632C34 32.6023 33.5786 31.5849 32.8284 30.8348C32.0783 30.0846 31.0609 29.6632 30 29.6632H22C20.9391 29.6632 19.9217 30.0846 19.1716 30.8348C18.4214 31.5849 18 32.6023 18 33.6632V35.6632" stroke="#FAFAFA" stroke-width="2" stroke-linecap="round" stroke-linejoin="round"/>
<path d="M26 25.6632C28.2091 25.6632 30 23.8723 30 21.6632C30 19.4541 28.2091 17.6632 26 17.6632C23.7909 17.6632 22 19.4541 22 21.6632C22 23.8723 23.7909 25.6632 26 25.6632Z" stroke="#FAFAFA" stroke-width="2" stroke-linecap="round" stroke-linejoin="round"/>
</svg>
