<svg width="20" height="21" viewBox="0 0 20 21" fill="none" xmlns="http://www.w3.org/2000/svg">
<path d="M14.9999 7.32985H14.1666V5.66319C14.1666 3.36319 12.2999 1.49652 9.99992 1.49652C7.69992 1.49652 5.83325 3.36319 5.83325 5.66319V7.32985H4.99992C4.08325 7.32985 3.33325 8.07985 3.33325 8.99652V17.3299C3.33325 18.2465 4.08325 18.9965 4.99992 18.9965H14.9999C15.9166 18.9965 16.6666 18.2465 16.6666 17.3299V8.99652C16.6666 8.07985 15.9166 7.32985 14.9999 7.32985ZM9.99992 14.8299C9.08325 14.8299 8.33325 14.0799 8.33325 13.1632C8.33325 12.2465 9.08325 11.4965 9.99992 11.4965C10.9166 11.4965 11.6666 12.2465 11.6666 13.1632C11.6666 14.0799 10.9166 14.8299 9.99992 14.8299ZM12.5833 7.32985H7.41658V5.66319C7.41658 4.23819 8.57492 3.07985 9.99992 3.07985C11.4249 3.07985 12.5833 4.23819 12.5833 5.66319V7.32985Z" fill="#A5B0C1"/>
</svg>
