<svg width="20" height="21" viewBox="0 0 20 21" fill="none" xmlns="http://www.w3.org/2000/svg">
<g clip-path="url(#clip0_12949_570)">
<path d="M16.6667 8.3316H9.16667C8.24619 8.3316 7.5 9.0778 7.5 9.99827V17.4983C7.5 18.4187 8.24619 19.1649 9.16667 19.1649H16.6667C17.5871 19.1649 18.3333 18.4187 18.3333 17.4983V9.99827C18.3333 9.0778 17.5871 8.3316 16.6667 8.3316Z" stroke="#3485FF" stroke-width="2" stroke-linecap="round" stroke-linejoin="round"/>
<path d="M4.1665 13.3316H3.33317C2.89114 13.3316 2.46722 13.156 2.15466 12.8434C1.8421 12.5309 1.6665 12.107 1.6665 11.6649V4.16493C1.6665 3.7229 1.8421 3.29898 2.15466 2.98642C2.46722 2.67386 2.89114 2.49826 3.33317 2.49826H10.8332C11.2752 2.49826 11.6991 2.67386 12.0117 2.98642C12.3242 3.29898 12.4998 3.7229 12.4998 4.16493V4.99826" stroke="#3485FF" stroke-width="2" stroke-linecap="round" stroke-linejoin="round"/>
</g>
<defs>
<clipPath id="clip0_12949_570">
<rect width="20" height="20" fill="white" transform="translate(0 0.831604)"/>
</clipPath>
</defs>
</svg>
