<svg width="167" height="45" viewBox="0 0 167 45" fill="none" xmlns="http://www.w3.org/2000/svg">
<path d="M56.404 30.9875V15.7761H61.2325V18.9635C61.485 17.8695 62.0005 17.0279 62.7789 16.4388C63.5784 15.8287 64.4621 15.5236 65.4299 15.5236C65.9348 15.5236 66.3556 15.5657 66.6922 15.6498V20.1312C66.1242 20.0681 65.6403 20.0366 65.2405 20.0366C62.5685 20.0366 61.2325 21.7302 61.2325 25.1176V30.9875H56.404ZM80.6815 29.1887C79.1667 30.7035 77.1259 31.4609 74.5591 31.4609C71.9923 31.4609 69.9409 30.7035 68.4051 29.1887C66.8692 27.6738 66.1013 25.7382 66.1013 23.3818C66.1013 21.0254 66.8692 19.1003 68.4051 17.6065C69.9409 16.0917 71.9923 15.3343 74.5591 15.3343C77.1259 15.3343 79.1667 16.0917 80.6815 17.6065C82.2174 19.1003 82.9853 21.0254 82.9853 23.3818C82.9853 25.7382 82.2174 27.6738 80.6815 29.1887ZM74.5591 27.3583C75.6742 27.3583 76.5578 26.9901 77.21 26.2537C77.8623 25.5173 78.1884 24.56 78.1884 23.3818C78.1884 22.2036 77.8623 21.2463 77.21 20.5099C76.5578 19.7736 75.6742 19.4054 74.5591 19.4054C73.423 19.4054 72.5288 19.7736 71.8766 20.5099C71.2454 21.2463 70.9298 22.2036 70.9298 23.3818C70.9298 24.56 71.2454 25.5173 71.8766 26.2537C72.5288 26.9901 73.423 27.3583 74.5591 27.3583ZM91.3347 31.4609C88.852 31.4609 86.8743 30.7246 85.4016 29.2518C83.9288 27.758 83.1925 25.8013 83.1925 23.3818C83.1925 20.9623 83.9288 19.0161 85.4016 17.5434C86.8743 16.0706 88.852 15.3343 91.3347 15.3343C93.5859 15.3343 95.4163 15.8918 96.826 17.0069C98.2356 18.122 99.0351 19.6368 99.2245 21.5514H94.3959C94.0382 20.1207 93.0284 19.4054 91.3662 19.4054C90.3143 19.4054 89.4937 19.7525 88.9046 20.4468C88.3155 21.1411 88.021 22.1195 88.021 23.3818C88.021 24.6442 88.3155 25.6225 88.9046 26.3168C89.4937 27.0111 90.3143 27.3583 91.3662 27.3583C93.0284 27.3583 94.0382 26.685 94.3959 25.3385H99.2245C99.0351 27.211 98.2356 28.7048 96.826 29.8199C95.4163 30.9139 93.5859 31.4609 91.3347 31.4609ZM115.655 30.9875H109.753L104.925 24.3917V30.9875H100.096V8.89621H104.925V22.1195L109.879 15.7761H115.56L109.501 22.9715L115.655 30.9875ZM129.681 22.5928C129.681 23.224 129.639 23.9288 129.554 24.7073H118.319C118.361 25.6961 118.698 26.4641 119.329 27.0111C119.96 27.5581 120.813 27.8316 121.886 27.8316C123.358 27.8316 124.305 27.3583 124.726 26.4115H129.46C129.228 27.9053 128.408 29.1256 126.998 30.0723C125.61 30.9981 123.905 31.4609 121.886 31.4609C119.298 31.4609 117.257 30.7456 115.763 29.3149C114.269 27.8842 113.522 25.9065 113.522 23.3818C113.522 20.8992 114.269 18.9425 115.763 17.5118C117.257 16.0601 119.245 15.3343 121.728 15.3343C124.084 15.3343 125.999 16.0075 127.472 17.354C128.944 18.7006 129.681 20.4468 129.681 22.5928ZM118.319 21.7092H124.915C124.894 20.6993 124.61 19.9208 124.063 19.3738C123.516 18.8268 122.727 18.5533 121.696 18.5533C120.665 18.5533 119.845 18.8478 119.235 19.4369C118.646 20.005 118.34 20.7624 118.319 21.7092ZM138.472 27.232C139.145 27.232 139.703 27.2005 140.145 27.1373V30.9875C139.219 31.1559 138.146 31.24 136.926 31.24C136.379 31.24 135.895 31.2085 135.474 31.1453C135.053 31.0822 134.58 30.9455 134.054 30.7351C133.528 30.5036 133.097 30.1986 132.76 29.8199C132.423 29.4412 132.129 28.8941 131.876 28.1788C131.645 27.4635 131.529 26.6219 131.529 25.6541V19.5947H129.131V15.7761H131.529V11.2631H136.358V15.7761H139.798V19.5947H136.358V24.6442C136.358 25.6751 136.536 26.3694 136.894 26.7271C137.252 27.0637 137.778 27.232 138.472 27.232ZM159.84 15.7761H164.637V37.2994H159.808V29.6621H159.84V28.8415C159.419 29.599 158.767 30.2196 157.883 30.7035C157.021 31.1664 156.063 31.3978 155.011 31.3978C152.802 31.3978 151.056 30.6509 149.773 29.1571C148.489 27.6633 147.848 25.7382 147.848 23.3818C147.848 21.0675 148.51 19.1529 149.836 17.6381C151.161 16.1232 152.908 15.3658 155.075 15.3658C156.148 15.3658 157.105 15.5972 157.946 16.0601C158.788 16.523 159.419 17.1542 159.84 17.9537V15.7761ZM156.4 27.3898C157.557 27.3898 158.451 27.0111 159.083 26.2537C159.714 25.4963 160.029 24.539 160.029 23.3818C160.029 22.2457 159.714 21.2989 159.083 20.5415C158.451 19.7841 157.557 19.4054 156.4 19.4054C155.306 19.4054 154.422 19.7736 153.749 20.5099C153.097 21.2463 152.771 22.2036 152.771 23.3818C152.771 24.56 153.097 25.5278 153.749 26.2852C154.422 27.0216 155.306 27.3898 156.4 27.3898Z" fill="#0D114F"/>
<path d="M146.158 30.3879C145.569 30.9981 144.833 31.3031 143.949 31.3031C143.066 31.3031 142.319 30.9981 141.709 30.3879C141.12 29.7778 140.825 29.0519 140.825 28.2104C140.825 27.3477 141.12 26.6219 141.709 26.0328C142.319 25.4226 143.066 25.1176 143.949 25.1176C144.833 25.1176 145.569 25.4226 146.158 26.0328C146.769 26.6219 147.074 27.3477 147.074 28.2104C147.074 29.0519 146.769 29.7778 146.158 30.3879Z" fill="url(#paint0_linear_12911_622)"/>
<rect y="0.987549" width="43.832" height="43.832" rx="7.88976" fill="url(#paint1_linear_12911_622)"/>
<g filter="url(#filter0_di_12911_622)">
<path d="M33.258 33.4006H29.3487C29.1852 33.4006 29.0508 33.273 29.0363 33.1101C29.0317 33.0586 29.0267 33.0087 29.0214 32.9602C28.7973 30.9174 26.5982 29.1628 24.5583 29.4114C23.0692 29.5928 21.8351 30.7169 20.3445 30.8851C19.3393 30.9986 18.4621 30.9469 17.4596 30.7505C16.5809 30.5783 15.7327 30.2632 14.952 29.8247C13.1132 28.792 12.126 27.7285 11.2107 26.1262C10.681 25.1989 10.303 24.1834 10.1655 23.1243C10.0517 22.2478 10.0589 21.4755 10.1544 20.6249C10.3004 19.3255 10.7168 18.0607 11.3964 16.9436C12.3504 15.3753 13.3816 14.4001 15.0616 13.4873C15.7731 13.1007 16.5387 12.818 17.3296 12.6443C19.3324 12.2045 20.629 12.3334 22.5759 12.9436C23.6591 13.2831 24.8356 14.0105 25.8362 14.9598C28.0243 17.0357 28.1911 20.2934 28.2464 23.3091C28.2516 23.5886 27.996 23.8 27.7209 23.7503C26.3696 23.5059 25.3981 23.4863 24.0703 23.6974C23.7143 23.754 23.4214 23.3855 23.5175 23.0381C23.5591 22.8874 23.5918 22.7393 23.6163 22.5934C24.0088 20.2586 22.4111 17.5935 20.0547 17.3639C18.718 17.2336 17.3943 17.7794 16.4138 18.874C15.8286 19.4256 15.5049 20.291 15.4028 21.2137C15.1383 23.6048 17.0941 25.9171 19.497 26.0314C19.9555 26.0532 20.3982 25.9866 20.8505 25.8333C22.2759 25.3501 23.6654 24.628 25.1662 24.741C29.6812 25.081 32.8523 27.1164 33.6866 32.9094C33.724 33.169 33.5203 33.4006 33.258 33.4006Z" fill="#FAFAFA"/>
</g>
<defs>
<filter id="filter0_di_12911_622" x="8.44906" y="12.3839" width="26.8743" height="24.2815" filterUnits="userSpaceOnUse" color-interpolation-filters="sRGB">
<feFlood flood-opacity="0" result="BackgroundImageFix"/>
<feColorMatrix in="SourceAlpha" type="matrix" values="0 0 0 0 0 0 0 0 0 0 0 0 0 0 0 0 0 0 127 0" result="hardAlpha"/>
<feOffset dy="1.63237"/>
<feGaussianBlur stdDeviation="0.816183"/>
<feColorMatrix type="matrix" values="0 0 0 0 0 0 0 0 0 0 0 0 0 0 0 0 0 0 0.07 0"/>
<feBlend mode="normal" in2="BackgroundImageFix" result="effect1_dropShadow_12911_622"/>
<feBlend mode="normal" in="SourceGraphic" in2="effect1_dropShadow_12911_622" result="shape"/>
<feColorMatrix in="SourceAlpha" type="matrix" values="0 0 0 0 0 0 0 0 0 0 0 0 0 0 0 0 0 0 127 0" result="hardAlpha"/>
<feOffset dy="1.63237"/>
<feGaussianBlur stdDeviation="1.02023"/>
<feComposite in2="hardAlpha" operator="arithmetic" k2="-1" k3="1"/>
<feColorMatrix type="matrix" values="0 0 0 0 0.219608 0 0 0 0 0.533333 0 0 0 0 1 0 0 0 0.13 0"/>
<feBlend mode="normal" in2="shape" result="effect2_innerShadow_12911_622"/>
</filter>
<linearGradient id="paint0_linear_12911_622" x1="189.169" y1="-58.0416" x2="177.57" y2="55.1212" gradientUnits="userSpaceOnUse">
<stop stop-color="#5498FF"/>
<stop offset="0.515625" stop-color="#428EFF"/>
<stop offset="1" stop-color="#297FFF"/>
</linearGradient>
<linearGradient id="paint1_linear_12911_622" x1="52.463" y1="-65.3201" x2="19.6129" y2="49.5257" gradientUnits="userSpaceOnUse">
<stop stop-color="#5498FF"/>
<stop offset="0.515625" stop-color="#428EFF"/>
<stop offset="1" stop-color="#297FFF"/>
</linearGradient>
</defs>
</svg>
